<svg width="352" height="321" viewBox="0 0 352 321" fill="none" xmlns="http://www.w3.org/2000/svg">
<path d="M286.061 293.109C286.061 308.023 205.461 320.109 106.03 320.109C6.599 320.109 -74.001 308.018 -74.001 293.109C-74.001 282.551 -33.601 273.409 25.283 268.967C49.564 267.132 76.998 266.104 106.03 266.104C117.964 266.104 129.63 266.278 140.904 266.609C223.643 269.047 286.061 279.984 286.061 293.109Z" fill="#3F3D56"/>
<path opacity="0.1" d="M82.801 298.627C120.969 298.627 151.91 294.857 151.91 290.206C151.91 285.555 120.969 281.785 82.801 281.785C44.6332 281.785 13.692 285.555 13.692 290.206C13.692 294.857 44.6332 298.627 82.801 298.627Z" fill="black"/>
<path d="M82.511 296.303C118.594 296.303 147.845 265.102 147.845 226.614C147.845 188.126 118.594 156.925 82.511 156.925C46.428 156.925 17.177 188.126 17.177 226.614C17.177 265.102 46.428 296.303 82.511 296.303Z" fill="#3F3D56"/>
<path d="M103.127 267.847H62.475V305.015H103.127V267.847Z" fill="#5ABD8C"/>
<path d="M156.265 276.848L153.942 289.624L169.042 291.947L178.915 286.14L178.334 276.848H156.265Z" fill="#575A89"/>
<path d="M80.187 37.001C80.187 37.001 79.026 50.358 76.122 50.939C73.218 51.52 82.51 74.75 82.51 74.75H96.446L107.48 71.85L102.253 59.074C102.253 59.074 95.284 49.782 100.511 42.232C105.738 34.682 80.187 37.001 80.187 37.001Z" fill="#A0616A"/>
<path opacity="0.1" d="M80.187 37.001C80.187 37.001 79.026 50.358 76.122 50.939C73.218 51.52 82.51 74.75 82.51 74.75H96.446L107.48 71.85L102.253 59.074C102.253 59.074 95.284 49.782 100.511 42.232C105.738 34.682 80.187 37.001 80.187 37.001Z" fill="black"/>
<path d="M51.151 139.212C51.151 139.212 36.051 168.249 48.251 174.057C60.451 179.865 63.351 179.284 63.351 181.026C63.351 182.768 61.028 182.187 62.19 185.091C63.352 187.995 59.867 199.61 63.351 206.578C66.835 213.546 65.674 218.778 65.674 218.778C65.8962 219.803 66.2887 220.783 66.835 221.678C67.996 224.001 68.577 225.743 67.996 226.905C67.415 228.067 63.931 235.616 67.415 237.358C70.899 239.1 88.903 240.258 90.645 237.358C92.387 234.458 88.903 232.712 90.645 230.97C92.387 229.228 93.545 228.647 92.387 227.486C91.229 226.325 90.064 211.806 90.064 211.806C90.064 211.806 92.964 194.964 91.806 192.642C90.648 190.32 88.906 187.996 90.064 186.254C91.222 184.512 92.387 185.093 92.964 182.77C93.541 180.447 94.706 175.22 94.706 175.22L101.094 174.639L116.194 177.539C116.194 177.539 133.036 196.123 151.619 201.93C151.619 201.93 156.846 207.157 158.588 207.157C160.33 207.157 160.33 207.157 159.749 208.318C159.168 209.479 157.426 209.479 158.588 210.641C159.75 211.803 161.488 210.06 160.33 211.802C159.172 213.544 158.007 213.544 159.168 214.702C160.329 215.86 158.587 222.252 158.587 222.832C158.587 223.412 153.36 278.003 155.103 279.164C156.846 280.325 181.236 283.81 182.979 279.164C184.722 274.518 181.818 268.711 181.818 268.711C181.818 268.711 190.529 199.022 188.206 194.376C185.883 189.73 177.753 168.832 134.2 155.473C134.2 155.473 122 153.15 122 151.408C122 149.666 120.839 138.632 118.516 138.051C116.193 137.47 102.836 136.89 102.836 136.89L86 142.116L62.77 138.051L51.151 139.212Z" fill="#2F2E41"/>
<path d="M71.4771 236.778L68.577 247.231C68.577 247.231 66.254 264.073 69.158 268.138C70.7367 270.403 72.8081 272.28 75.2167 273.629C77.6253 274.978 80.3082 275.764 83.064 275.927C85.1807 276.121 87.3003 275.587 89.0722 274.413C90.844 273.239 92.162 271.495 92.8081 269.47C92.8948 269.228 92.9489 268.975 92.9691 268.718C92.9691 267.557 91.2271 253.618 91.2271 253.618L88.327 239.099L87.7461 235.034L71.4771 236.778Z" fill="#2F2E41"/>
<path d="M156.266 286.721C156.266 286.721 153.366 283.821 152.782 286.721C152.198 289.621 149.882 301.821 153.943 302.401C158.004 302.981 196.918 308.789 200.983 306.466C205.048 304.143 212.598 300.659 207.952 298.916C203.306 297.173 189.952 291.947 189.952 291.947C189.952 291.947 182.402 282.074 181.241 281.494C180.08 280.914 173.691 282.075 170.788 284.394C167.885 286.713 156.266 286.721 156.266 286.721Z" fill="#2F2E41"/>
<path d="M94.125 49.197C104.068 49.197 112.128 41.1368 112.128 31.194C112.128 21.2512 104.068 13.191 94.125 13.191C84.1822 13.191 76.122 21.2512 76.122 31.194C76.122 41.1368 84.1822 49.197 94.125 49.197Z" fill="#A0616A"/>
<path d="M92.383 71.846L85.414 64.296L77.689 49.196C77.689 49.196 72.057 47.454 70.895 50.357C69.733 53.26 48.827 62.557 48.827 62.557C48.827 62.557 54.054 111.339 51.727 115.985C49.4 120.631 45.339 139.215 48.827 140.957C52.315 142.699 68.572 140.957 73.799 143.28C79.026 145.603 94.125 145.603 98.19 142.699C102.255 139.795 103.417 137.472 107.482 139.215C110.943 140.698 119.034 89.991 121.363 74.88C121.559 73.6109 121.396 72.3122 120.893 71.1309C120.389 69.9496 119.565 68.933 118.513 68.196C113.302 64.541 103.913 58.242 102.256 59.073C99.933 60.231 92.383 71.846 92.383 71.846Z" fill="#575A89"/>
<path d="M117.355 69.523C118.719 69.8639 119.946 70.6138 120.871 71.6723C121.796 72.7307 122.375 74.0469 122.53 75.444L127.23 117.725C127.23 117.725 115.615 142.697 109.808 125.855C104.001 109.013 117.355 69.523 117.355 69.523Z" fill="#575A89"/>
<path d="M116.193 121.79L128.969 118.306C128.969 118.306 131.292 134.567 133.615 134.567C135.938 134.567 125.485 143.859 120.258 142.697C115.031 141.535 107.482 137.47 106.901 134.567C106.32 131.664 112.128 119.467 112.128 119.467L116.193 121.79Z" fill="#575A89"/>
<path d="M80.535 38.959C81.759 36.259 81.547 33.111 82.559 30.325C83.1018 28.834 83.9817 27.4885 85.1301 26.3936C86.2785 25.2987 87.6643 24.4839 89.1795 24.0128C90.6947 23.5417 92.2982 23.427 93.865 23.6777C95.4318 23.9284 96.9195 24.5377 98.212 25.458C99.512 26.386 100.819 27.691 102.412 27.513C104.123 27.322 105.65 25.413 107.223 26.113C108.967 26.888 108.496 30.013 110.262 30.736C110.746 30.8751 111.262 30.8467 111.728 30.6554C112.194 30.4641 112.581 30.1211 112.827 29.682C113.296 28.7894 113.552 27.8001 113.574 26.792C113.818 24.315 114.038 21.692 112.964 19.449C112.512 18.6881 112.118 17.8942 111.786 17.074C111.598 16.308 111.523 15.5187 111.562 14.731C111.552 11.82 111.34 8.783 109.875 6.267C108.998 4.90608 107.86 3.73219 106.527 2.81296C105.194 1.89372 103.693 1.24731 102.109 0.910995C98.9387 0.256314 95.6826 0.125589 92.47 0.524002C87.148 0.975002 81.599 1.94 77.406 5.248C76.8363 5.66433 76.3458 6.17949 75.958 6.769C75.5901 7.46958 75.3302 8.22174 75.187 9C74.2806 12.6911 72.9217 16.2562 71.141 19.614C70.2827 21.0384 69.5813 22.5516 69.049 24.127C68.7877 24.9176 68.6986 25.7549 68.7876 26.5828C68.8766 27.4107 69.1417 28.21 69.565 28.927C70.323 30.046 71.534 30.643 72.486 31.558C73.438 32.473 73.87 34.209 74.915 34.895C75.827 35.495 76.915 35.071 77.849 35.707C79.042 36.517 79.128 38.305 80.535 38.959Z" fill="#2F2E41"/>
<path d="M95.287 80.556L97.0291 77.072C97.0291 77.072 122.582 84.622 127.808 91.591C127.808 91.591 140.584 83.461 147.553 84.622L154.522 85.783L133.035 104.948L105.74 102.625L95.287 80.556Z" fill="#F2F2F2"/>
<path d="M94.126 77.072L70.316 110.172L104.579 127.015C104.579 127.015 107.779 128.757 110.246 127.015L133.036 116.562L154.524 85.783L133.033 96.815C133.033 96.815 130.71 92.169 126.064 94.492L94.126 77.072Z" fill="#5ABD8C"/>
<path d="M130.713 135.727L135.359 123.527C135.359 123.527 145.812 110.17 140.005 103.782C134.198 97.394 127.805 122.366 127.805 122.366L130.713 135.727Z" fill="#A0616A"/>
<path d="M77.108 133.781L87.246 125.562C87.246 125.562 102.99 119.252 101.171 110.813C99.3521 102.374 81.298 120.77 81.298 120.77L77.108 133.781Z" fill="#A0616A"/>
<path opacity="0.1" d="M52.022 75.04H51.441C51.441 75.04 42.441 64.296 40.697 78.815C38.953 93.334 33.147 141.535 48.247 143.278C57.4688 144.207 66.7007 141.614 74.09 136.019C74.09 136.019 85.124 119.177 81.059 119.177C79.092 119.177 73.743 118.294 68.859 118.596C63.654 118.919 58.977 120.385 59.277 118.886C59.862 115.982 68.283 79.105 52.022 75.04Z" fill="black"/>
<path d="M51.15 63.715L48.827 62.554C48.827 62.554 39.535 64.296 37.793 78.815C36.051 93.334 30.243 141.535 45.343 143.278C60.443 145.021 80.768 140.955 80.768 140.955C80.768 140.955 84.833 118.887 80.768 118.887C76.703 118.887 55.796 121.787 56.377 118.887C56.958 115.987 67.411 67.781 51.15 63.715Z" fill="#575A89"/>
<path d="M122.292 129.049L128.692 119.234L132.741 135.434L122.292 140.083V129.049Z" fill="#575A89"/>
</svg>
